<svg width="96" height="32" viewBox="0 0 96 32" fill="none" xmlns="http://www.w3.org/2000/svg">
<rect x="0.5" y="0.5" width="31" height="31" stroke="#3B3E4A"/>
<path fill-rule="evenodd" clip-rule="evenodd" d="M10.666 16C10.666 15.6318 10.9645 15.3333 11.3327 15.3333H20.666C21.0342 15.3333 21.3327 15.6318 21.3327 16C21.3327 16.3682 21.0342 16.6666 20.666 16.6666H11.3327C10.9645 16.6666 10.666 16.3682 10.666 16Z" fill="#4A4D58"/>
<rect x="64" width="32" height="32" fill="#323542"/>
<path fill-rule="evenodd" clip-rule="evenodd" d="M80.666 11.3334C80.666 10.9652 80.3675 10.6667 79.9993 10.6667C79.6312 10.6667 79.3327 10.9652 79.3327 11.3334V15.3334H75.3327C74.9645 15.3334 74.666 15.6318 74.666 16C74.666 16.3682 74.9645 16.6667 75.3327 16.6667H79.3327V20.6667C79.3327 21.0349 79.6312 21.3334 79.9993 21.3334C80.3675 21.3334 80.666 21.0349 80.666 20.6667V16.6667H84.666C85.0342 16.6667 85.3327 16.3682 85.3327 16C85.3327 15.6318 85.0342 15.3334 84.666 15.3334H80.666V11.3334Z" fill="#F1F2F9"/>
<path d="M45.5326 11.69V12.754H47.3246V21H48.4586V11.69H45.5326Z" fill="#F1F2F9"/>
</svg>
